<?xml version="1.0" encoding="UTF-8"?>
<svg id="Layer_2" data-name="Layer 2" xmlns="http://www.w3.org/2000/svg" viewBox="0 0 1055.05 230.4">
  <defs>
    <style>
      .cls-1 {
        fill: #cf6949;
      }

      .cls-2 {
        fill: #cf6748;
      }
    </style>
  </defs>
  <g id="Layer_1-2" data-name="Layer 1">
    <g>
      <path class="cls-1" d="M201.61,230.4v-51.84l94.06-62.88c-30.7-21.99-63-41.82-94.06-63.36V.96l172.78,114.72-172.78,114.72Z"/>
      <polygon class="cls-1" points="172.81 52.32 78.72 114.73 81.29 117.92 172.81 179.04 172.81 230.4 0 114.73 172.81 0 172.81 52.32"/>
      <path class="cls-1" d="M416.65,181.44V50.4c0-.1,1.34-1.44,1.44-1.44h77.76c12.58,0,27.2,9.55,31.24,21.56,4.64,13.81,3.95,57.08,2.88,73.04-.94,14.12-4.79,27.96-18.58,34.22-1.47.67-9.86,3.66-10.74,3.66h-84ZM446.41,157.44h44.64c.28,0,4.23-2.36,4.81-2.87,3.68-3.2,4.7-9.33,5.14-14.06.91-9.73,1.42-51.5-1.31-58.92-1.52-4.13-7.2-8.63-11.53-8.63h-41.76v84.48Z"/>
      <path class="cls-1" d="M818.89,181.44V50.4c0-.1,1.34-1.44,1.44-1.44h75.84c23.68,0,33.75,17.77,35.08,38.84,1.04,16.48,1.78,56.65-2.63,71.37-3.12,10.4-15.45,22.27-26.69,22.27h-83.04ZM847.69,157.44h44.64c1.1,0,5.7-3.56,6.66-4.86,1.72-2.31,2.97-6.32,3.31-9.17,1.55-12.75,1.17-40.53.14-53.69-.44-5.59-1.44-11.57-6.69-14.43-.86-.47-5.8-2.34-6.3-2.34h-41.76v84.48Z"/>
      <path class="cls-1" d="M630.25,48.96c28.49,2.75,34.03,25.58,32.15,50.39-1.08,14.31-6.88,25.72-20.22,31.78l23.11,50.31h-30.24l-23.04-48h-31.2v48h-28.8V50.4c0-.1,1.34-1.44,1.44-1.44h76.8ZM580.81,110.4h41.76c13.47,0,14.31-28.54,6.74-34.58-.81-.65-5.2-2.86-5.78-2.86h-42.72v37.44Z"/>
      <path class="cls-1" d="M712.12,48.27c12.38-1.41,49.26-1.67,60.48,1.39,16.32,4.44,23.04,17.29,24.25,33.35,1.18,15.7,1.92,60.55-1.45,74.47-2.82,11.65-9.5,19.48-20.88,23.28-12.5,4.17-53.68,3.96-66.84,1.02-16.41-3.67-24.79-14.89-26.11-31.49-1.23-15.47-1.93-64.78,1.63-78.12,3.83-14.34,14.29-22.23,28.91-23.89ZM720.72,72.23c-6.82,1.14-9.65,6.35-10.3,12.74-1.49,14.66-1.38,45.72-.05,60.51.76,8.46,4.38,12.91,13,13.88,7.23.81,24.42.78,31.69,0,9.95-1.07,12.19-7.92,12.94-16.82,1.21-14.28,1.17-39.45.05-53.78-.57-7.25-2.85-15.5-11.16-16.68-6.66-.94-29.64-.95-36.16.14Z"/>
      <path class="cls-2" d="M1055.05,48.96v24h-72.96v28.32c0,.8,2.32,1.7,3.31,1.48,20.29-1.66,40.65-.62,61.01-1v24h-64.32v31.68h72.96v24h-101.76V48.96h101.76Z"/>
    </g>
  </g>
</svg>